<svg width="43" height="28" viewBox="0 0 43 28" fill="none" xmlns="http://www.w3.org/2000/svg">
<path d="M14 20.7084L6.79929 24.4942L8.17479 16.4757L2.34146 10.7975L10.3915 9.63086L13.9918 2.33569L17.5921 9.63086L25.6421 10.7975L19.8088 16.4757L21.1843 24.4942L14 20.7084Z" fill="#9854F6" stroke="#9854F6" stroke-width="2" stroke-linecap="round" stroke-linejoin="round"/>
<path d="M37.0739 8.20455C37.6307 8.20833 38.1723 8.30682 38.6989 8.5C39.2292 8.68939 39.7064 9 40.1307 9.43182C40.5549 9.85985 40.892 10.4337 41.142 11.1534C41.392 11.8731 41.517 12.7633 41.517 13.8239C41.5208 14.8239 41.4148 15.7178 41.1989 16.5057C40.9867 17.2898 40.6818 17.9527 40.2841 18.4943C39.8864 19.036 39.4072 19.4489 38.8466 19.733C38.286 20.017 37.6553 20.1591 36.9545 20.1591C36.2197 20.1591 35.5682 20.0152 35 19.7273C34.4356 19.4394 33.9792 19.0455 33.6307 18.5455C33.2822 18.0455 33.0682 17.4735 32.9886 16.8295H35.0625C35.1686 17.2917 35.3845 17.6591 35.7102 17.9318C36.0398 18.2008 36.4545 18.3352 36.9545 18.3352C37.7614 18.3352 38.3826 17.9848 38.8182 17.2841C39.2538 16.5833 39.4716 15.6098 39.4716 14.3636H39.392C39.2064 14.697 38.9659 14.9848 38.6705 15.2273C38.375 15.4659 38.0398 15.6496 37.6648 15.7784C37.2936 15.9072 36.8996 15.9716 36.483 15.9716C35.8011 15.9716 35.1875 15.8087 34.642 15.483C34.1004 15.1572 33.6705 14.7102 33.3523 14.142C33.0379 13.5739 32.8788 12.9242 32.875 12.1932C32.875 11.4356 33.0492 10.7557 33.3977 10.1534C33.75 9.54735 34.2405 9.07008 34.8693 8.72159C35.4981 8.36932 36.233 8.19697 37.0739 8.20455ZM37.0795 9.90909C36.6705 9.90909 36.3011 10.0095 35.9716 10.2102C35.6458 10.4072 35.3883 10.6761 35.1989 11.017C35.0133 11.3542 34.9205 11.7311 34.9205 12.1477C34.9242 12.5606 35.017 12.9356 35.1989 13.2727C35.3845 13.6098 35.6364 13.8769 35.9545 14.0739C36.2765 14.2708 36.6439 14.3693 37.0568 14.3693C37.3636 14.3693 37.6496 14.3106 37.9148 14.1932C38.1799 14.0758 38.411 13.9129 38.608 13.7045C38.8087 13.4924 38.964 13.2519 39.0739 12.983C39.1875 12.714 39.2424 12.4299 39.2386 12.1307C39.2386 11.733 39.1439 11.3655 38.9545 11.0284C38.7689 10.6913 38.5133 10.4205 38.1875 10.2159C37.8655 10.0114 37.4962 9.90909 37.0795 9.90909Z" fill="black"/>
</svg>
